<svg width="23" height="23" fill="none" xmlns="http://www.w3.org/2000/svg"><path d="M21.34.042H1.66A1.66 1.66 0 000 1.7v.266c0 .76.515 1.401 1.214 1.597V17.61c0 .32.259.579.578.579h9.13v1.191a1.839 1.839 0 00-1.258 1.742c0 1.012.824 1.836 1.836 1.836a1.838 1.838 0 001.836-1.836 1.84 1.84 0 00-1.257-1.742v-1.19h9.129a.58.58 0 00.579-.58V3.565A1.66 1.66 0 0023 1.967v-.266c0-.915-.744-1.66-1.66-1.66zM11.5 21.8a.679.679 0 11.001-1.358.679.679 0 01-.001 1.358zm9.129-4.77H2.37V3.626h18.26v13.405zm1.213-15.064a.502.502 0 01-.501.502H1.659a.502.502 0 01-.501-.502V1.7c0-.277.225-.502.501-.502h19.682c.276 0 .501.225.501.502v.266z" fill="#7261ED"/><path d="M3.958 15.674a.577.577 0 00.41-.17l2.218-2.218 2.141 1.07a.58.58 0 00.74-.196l2.194-3.29 3.289 2.193a.58.58 0 00.848-.241l2.263-4.97.453 1.01a.579.579 0 101.056-.473l-1.043-2.33a.58.58 0 00-.765-.29L15.433 6.81a.579.579 0 10.473 1.057l1.1-.493-1.98 4.348-3.205-2.137a.58.58 0 00-.803.16l-2.23 3.346-2.057-1.028a.578.578 0 00-.668.108l-2.514 2.514a.579.579 0 00.41.988z" fill="#7261ED"/></svg>