<svg width="22" height="22" fill="none" xmlns="http://www.w3.org/2000/svg"><path d="M15.973 15.22l-.223-.046-.126-.501a3.44 3.44 0 002.595-3.33v-.687h.343a1.72 1.72 0 001.72-1.719v-4.67c.432-.71.687-1.542.687-2.433a.803.803 0 00-1.444-.482l-.398.532a1.314 1.314 0 01-1.046.522 1.32 1.32 0 01-.784-.261l-.739-.554a6.273 6.273 0 00-3.74-1.247h-.615a5.006 5.006 0 00-4.169 2.254 6.157 6.157 0 00-1.503-.192A6.195 6.195 0 00.344 8.594 6.195 6.195 0 006.53 14.78c1.347 0 2.59-.437 3.608-1.17a3.449 3.449 0 001.737 1.063l-.126.5-.223.045a6.23 6.23 0 00-4.996 6.094v.343h14.44v-.343a6.23 6.23 0 00-4.996-6.094zm-2.762 1.914l-1.239.825-.208-2.086.155-.031 1.292 1.292zm.195.696l.344-.23.344.23v1.621l-.344.344-.344-.344V17.83zm.883-.696l1.293-1.292.154.031-.209 2.087-1.238-.826zm4.274-7.165h-.344V7.906h.343a1.033 1.033 0 010 2.063zm1.03-2.398a1.701 1.701 0 00-1.03-.352h-.344V6.103c.514-.236.98-.557 1.375-.952v2.42zm-7.39-6.54h.615c1.192 0 2.374.394 3.328 1.11l.739.554c.343.257.768.399 1.196.399.624 0 1.22-.298 1.596-.798l.398-.531c.059-.08.206-.031.206.068a4.015 4.015 0 01-4.01 4.01 9.137 9.137 0 01-3.408-.656l-1.53-.611c-.046-.02-.096-.03-.145-.043a6.202 6.202 0 00-2.462-1.717 4.312 4.312 0 013.477-1.785zM1.031 8.594c0-3.033 2.468-5.5 5.5-5.5 3.033 0 5.5 2.467 5.5 5.5 0 3.032-2.467 5.5-5.5 5.5a5.506 5.506 0 01-5.5-5.5zm9.641 4.584a6.166 6.166 0 002.047-4.584 6.144 6.144 0 00-.81-3.047l.699.279a9.818 9.818 0 003.663.705 4.68 4.68 0 001.26-.176v4.989a2.753 2.753 0 01-2.75 2.75H12.72a2.757 2.757 0 01-2.047-.916zm2.047 1.603h2.062c.054 0 .106-.005.16-.008l.147.59-1.338 1.338-1.338-1.338.148-.591c.053.002.105.01.159.01zm-5.49 6.188a5.544 5.544 0 013.861-4.925l.312 3.122 1.317-.878v1.448l1.031 1.031 1.031-1.03v-1.449l1.316.878.313-3.122a5.544 5.544 0 013.86 4.925H7.23z" fill="#7261ED"/><path d="M15.813 9.625c.568 0 1.03-.463 1.03-1.031a1.033 1.033 0 00-2.062 0c0 .568.463 1.031 1.031 1.031zm0-1.375a.344.344 0 11-.001.688.344.344 0 010-.688zm0 3.094h-.688a.688.688 0 01-.688.687h-2.062v.688h2.063c.758 0 1.374-.617 1.374-1.375zM11.282 8.79l.137-.196-.137-.197c-1.114-1.599-2.89-2.553-4.75-2.553-1.862 0-3.638.954-4.751 2.553l-.138.197.137.196c1.114 1.6 2.89 2.554 4.751 2.554 1.861 0 3.637-.955 4.75-2.554zm-2.688-.196c0 1.058-.801 1.93-1.828 2.048-.079.004-.156.014-.235.014-.079 0-.156-.01-.234-.014a2.065 2.065 0 01-1.828-2.048c0-1.058.8-1.931 1.828-2.048.078-.004.155-.015.234-.015.079 0 .156.01.235.015a2.065 2.065 0 011.828 2.048zm-6.106 0a5.341 5.341 0 011.72-1.467 2.732 2.732 0 000 2.933 5.345 5.345 0 01-1.72-1.466zm6.366 1.466a2.733 2.733 0 000-2.933 5.34 5.34 0 011.72 1.467 5.345 5.345 0 01-1.72 1.466z" fill="#7261ED"/></svg>