<svg width="55" height="66" fill="none" xmlns="http://www.w3.org/2000/svg"><g clip-path="url(#clip0)"><path d="M5.79 5.867V55M.724.733v59.4M10.855.733v48.4M5.79 55h48.486M.724.733h10.131M.724 60.133H49.21M.724 65.267h53.552m0 0V55" stroke="#7261ED" stroke-width="2" stroke-linecap="round"/><path d="M19.872 49.156c-1.28 0-2.331-.3-3.155-.9v-1.428c.328.288.78.544 1.356.768a4.892 4.892 0 001.727.324c.569 0 1.032-.112 1.392-.336.369-.224.552-.528.552-.912 0-.304-.123-.564-.372-.78a1.498 1.498 0 00-.431-.252c-.232-.112-.616-.244-1.152-.396l-.169-.048c-.456-.128-.82-.244-1.091-.348a5.774 5.774 0 01-.84-.42c-.576-.36-.864-.924-.864-1.692 0-.696.271-1.252.816-1.668.552-.416 1.296-.624 2.232-.624 1.015 0 1.912.232 2.688.696v1.32c-.857-.52-1.744-.78-2.665-.78-.56 0-.988.1-1.284.3-.287.192-.431.448-.431.768 0 .272.163.524.491.756.049.032.116.068.204.108a56.078 56.078 0 00.54.192l.96.276a8.075 8.075 0 011.537.624c.744.4 1.14 1.048 1.188 1.944 0 .776-.308 1.388-.924 1.836-.616.448-1.384.672-2.305.672zm5.235-1.764v-3.144h-1.26v-1.14h1.26v-1.716h1.296v1.716h1.86v1.14h-1.86v2.772c0 .328.076.568.228.72.152.152.384.228.696.228.312 0 .608-.072.888-.216v1.116c-.28.192-.716.288-1.308.288-.56 0-1-.152-1.32-.456-.32-.304-.48-.74-.48-1.308zm8.85-.408v-3.876h1.297V49h-1.296v-.78c-.576.624-1.297.936-2.16.936-.696 0-1.236-.216-1.62-.648-.377-.432-.565-1.032-.565-1.8v-3.6h1.297v3.312c0 1.016.46 1.524 1.38 1.524.32 0 .636-.088.947-.264.313-.184.552-.416.72-.696zm5.583 2.172c-.832 0-1.516-.3-2.052-.9-.536-.592-.804-1.328-.804-2.208 0-.872.268-1.604.804-2.196.536-.6 1.22-.9 2.052-.9.904 0 1.604.32 2.1.96V40.6h1.296V49H41.64v-.804c-.496.64-1.196.96-2.1.96zm.348-1.14c.376 0 .72-.096 1.032-.288.312-.2.552-.456.72-.768v-1.824a1.977 1.977 0 00-.732-.744c-.312-.2-.652-.3-1.02-.3a1.78 1.78 0 00-1.356.576 1.92 1.92 0 00-.54 1.38c0 .552.18 1.02.54 1.404.36.376.812.564 1.356.564zm6.296.984h-1.296v-5.892h1.296V49zm-.648-6.948a.822.822 0 01-.588-.228.822.822 0 01-.228-.588.8.8 0 01.816-.828c.224 0 .412.08.564.24a.8.8 0 01.24.588.8.8 0 01-.24.588.766.766 0 01-.564.228zm5.427 5.964c.544 0 1.004-.188 1.38-.564.368-.368.552-.836.552-1.404 0-.56-.184-1.024-.552-1.392a1.877 1.877 0 00-1.38-.564c-.552 0-1.016.188-1.392.564-.368.368-.552.832-.552 1.392 0 .568.184 1.036.552 1.404.376.376.84.564 1.392.564zm0 1.14c-.944 0-1.72-.3-2.328-.9-.608-.6-.912-1.336-.912-2.208 0-.864.304-1.596.912-2.196.608-.6 1.384-.9 2.328-.9.928 0 1.7.3 2.316.9.608.6.912 1.332.912 2.196 0 .864-.304 1.6-.912 2.208-.616.6-1.388.9-2.316.9z" fill="#7261ED"/></g><defs><clipPath id="clip0"><path fill="#fff" d="M0 0h55v66H0z"/></clipPath></defs></svg>