<svg width="37" height="37" fill="none" xmlns="http://www.w3.org/2000/svg"><g clip-path="url(#clip0)" fill="#fff"><path d="M3.374 19.971c-1.097 0-2.16-.353-2.852-.708L0 21.388c.64.355 1.923.692 3.222.692 3.121 0 4.589-1.62 4.589-3.526 0-1.602-.945-2.648-2.952-3.39-1.468-.558-2.109-.878-2.109-1.603 0-.59.54-1.097 1.653-1.097 1.114 0 1.924.321 2.379.54l.574-2.074c-.676-.304-1.62-.574-2.902-.574-2.682 0-4.302 1.484-4.302 3.424 0 1.653 1.231 2.699 3.12 3.357 1.367.49 1.907.895 1.907 1.602 0 .743-.625 1.232-1.805 1.232zm13.428-.169H12.13v-2.698h4.183v-2.092H12.13V12.65h4.436v-2.11H9.548v11.37h7.254v-2.109zm8.695 2.972a6.526 6.526 0 004.197-1.526l2.265 2.113a.85.85 0 00.267.643l3.323 3.102a.858.858 0 001.219-.043.864.864 0 00-.041-1.22l-3.323-3.101a.854.854 0 00-.66-.223l-2.234-2.085a6.526 6.526 0 001.544-4.217 6.563 6.563 0 00-6.556-6.556 6.565 6.565 0 00-6.557 6.556 6.562 6.562 0 006.556 6.557zm0-11.387a4.836 4.836 0 014.83 4.83 4.837 4.837 0 01-4.83 4.83 4.837 4.837 0 01-4.831-4.83 4.836 4.836 0 014.83-4.83z"/></g><defs><clipPath id="clip0"><path fill="#fff" d="M0 0h37v37H0z"/></clipPath></defs></svg>