<svg width="32" height="39" fill="none" xmlns="http://www.w3.org/2000/svg"><path d="M25.317 15.12l-.877.959 3.986 3.654a4.561 4.561 0 011.474 3.355V39h1.3V23.088a5.865 5.865 0 00-1.897-4.313l-3.986-3.654z" fill="#fff"/><path d="M20.15 0H3.25A3.254 3.254 0 000 3.25v32.5A3.254 3.254 0 003.25 39H19.5v-1.163a14.777 14.777 0 012.49-8.226.65.65 0 00-.08-.82l-4.55-4.55a2.108 2.108 0 01.154-3.12 2.19 2.19 0 012.91.224l6.416 6.416.92-.92-4.36-4.36V3.25A3.254 3.254 0 0020.15 0zm1.95 21.18l-.757-.756a3.498 3.498 0 00-4.656-.308 3.41 3.41 0 00-.247 5.044l4.18 4.18a16.071 16.071 0 00-2.415 8.36H3.25a1.95 1.95 0 01-1.95-1.95V33.8h16.25v-1.3H1.3V5.2h20.8v15.98zm0-17.28H1.3v-.65A1.95 1.95 0 013.25 1.3h16.9a1.95 1.95 0 011.95 1.95v.65z" fill="#fff"/><path d="M3.9 11.7h2.6a1.3 1.3 0 001.3-1.3V7.8a1.3 1.3 0 00-1.3-1.3H3.9a1.3 1.3 0 00-1.3 1.3v2.6a1.3 1.3 0 001.3 1.3zm0-3.9h2.6v2.6H3.9V7.8zm6.5 3.9H13a1.3 1.3 0 001.3-1.3V7.8A1.3 1.3 0 0013 6.5h-2.6a1.3 1.3 0 00-1.3 1.3v2.6a1.3 1.3 0 001.3 1.3zm0-3.9H13v2.6h-2.6V7.8zm6.5 3.9h2.6a1.3 1.3 0 001.3-1.3V7.8a1.3 1.3 0 00-1.3-1.3h-2.6a1.3 1.3 0 00-1.3 1.3v2.6a1.3 1.3 0 001.3 1.3zm0-3.9h2.6v2.6h-2.6V7.8zm-13 10.4h2.6a1.3 1.3 0 001.3-1.3v-2.6A1.3 1.3 0 006.5 13H3.9a1.3 1.3 0 00-1.3 1.3v2.6a1.3 1.3 0 001.3 1.3zm0-3.9h2.6v2.6H3.9v-2.6zm0 10.4h2.6a1.3 1.3 0 001.3-1.3v-2.6a1.3 1.3 0 00-1.3-1.3H3.9a1.3 1.3 0 00-1.3 1.3v2.6a1.3 1.3 0 001.3 1.3zm0-3.9h2.6v2.6H3.9v-2.6zm6.5-2.6H13a1.3 1.3 0 001.3-1.3v-2.6A1.3 1.3 0 0013 13h-2.6a1.3 1.3 0 00-1.3 1.3v2.6a1.3 1.3 0 001.3 1.3zm0-3.9H13v2.6h-2.6v-2.6zm6.5 3.9h2.6a1.3 1.3 0 001.3-1.3v-2.6a1.3 1.3 0 00-1.3-1.3h-2.6a1.3 1.3 0 00-1.3 1.3v2.6a1.3 1.3 0 001.3 1.3zm0-3.9h2.6v2.6h-2.6v-2.6zm-6.5 10.4H13a1.3 1.3 0 001.3-1.3v-2.6a1.3 1.3 0 00-1.3-1.3h-2.6a1.3 1.3 0 00-1.3 1.3v2.6a1.3 1.3 0 001.3 1.3zm0-3.9H13v2.6h-2.6v-2.6zM3.9 31.2h2.6a1.3 1.3 0 001.3-1.3v-2.6A1.3 1.3 0 006.5 26H3.9a1.3 1.3 0 00-1.3 1.3v2.6a1.3 1.3 0 001.3 1.3zm0-3.9h2.6v2.6H3.9v-2.6zm6.5 3.9H13a1.3 1.3 0 001.3-1.3v-2.6A1.3 1.3 0 0013 26h-2.6a1.3 1.3 0 00-1.3 1.3v2.6a1.3 1.3 0 001.3 1.3zm0-3.9H13v2.6h-2.6v-2.6zm.65 7.8h1.3v1.3h-1.3v-1.3z" fill="#fff"/></svg>