<svg width="23" height="23" fill="none" xmlns="http://www.w3.org/2000/svg"><path d="M17.318 7.792l-3.162-4a3.405 3.405 0 00-2.173-1.25V.482a.482.482 0 00-.48-.481.482.482 0 00-.481.48v2.063a3.342 3.342 0 00-2.168 1.25L5.682 7.795a2.004 2.004 0 00-.428 1.23V21.04A1.97 1.97 0 007.229 23h8.532a1.97 1.97 0 001.985-1.95V9.026c0-.447-.154-.88-.428-1.235zm-5.816-.563a1.398 1.398 0 110 2.798 1.397 1.397 0 01-1.398-1.399 1.4 1.4 0 011.398-1.399zm5.288 13.81c0 .562-.462 1-1.024 1H7.239a1.007 1.007 0 01-1.024-1V9.027c0-.23.077-.457.221-.635l3.168-4.004a2.41 2.41 0 011.418-.87v2.798A2.36 2.36 0 009.19 9.109a2.36 2.36 0 002.793 1.831 2.36 2.36 0 001.831-2.793 2.364 2.364 0 00-1.831-1.831V3.518a2.397 2.397 0 011.413.87l3.173 4c.144.182.22.408.22.639v12.012z" fill="#7261ED"/><path d="M13.036 17.53a1.61 1.61 0 00-1.534-1.125.644.644 0 11.645-.644.48.48 0 00.96 0 1.61 1.61 0 00-1.124-1.533v-.212a.482.482 0 00-.48-.48.482.482 0 00-.481.48v.212a1.608 1.608 0 00-1.053 2.014 1.61 1.61 0 001.534 1.124.644.644 0 11-.645.645.482.482 0 00-.48-.481.482.482 0 00-.481.48 1.61 1.61 0 001.125 1.534v.24a.48.48 0 00.961 0v-.24a1.608 1.608 0 001.053-2.014z" fill="#7261ED"/></svg>