<svg width="22" height="22" fill="none" xmlns="http://www.w3.org/2000/svg"><g clip-path="url(#clip0)" fill="#0E0E0E" fill-opacity=".3"><path d="M13.488 8.956l-3.305 3.123-1.587-1.633a.457.457 0 00-.655.638l1.902 1.953a.466.466 0 00.647.013l3.636-3.429a.457.457 0 00.018-.646.468.468 0 00-.656-.019z"/><path d="M11.035 4.151a6.856 6.856 0 00-6.85 6.85 6.856 6.856 0 006.85 6.85 6.856 6.856 0 006.85-6.85 6.856 6.856 0 00-6.85-6.85zm0 12.783A5.94 5.94 0 015.102 11a5.94 5.94 0 015.933-5.933 5.933 5.933 0 110 11.866z"/><path d="M20.462 8.48l.151-2.72a.458.458 0 00-.252-.435l-2.42-1.224-1.225-2.42a.465.465 0 00-.435-.253l-2.724.147-2.27-1.5a.458.458 0 00-.504 0l-2.269 1.5-2.719-.151a.457.457 0 00-.435.252l-1.225 2.42-2.42 1.225a.465.465 0 00-.252.435l.15 2.72-1.498 2.268a.459.459 0 000 .505l1.494 2.274-.15 2.719a.457.457 0 00.251.435l2.421 1.224 1.224 2.421c.083.162.254.26.436.252l2.718-.151 2.27 1.499a.446.446 0 00.504 0l2.27-1.5 2.718.152a.458.458 0 00.436-.252l1.224-2.42 2.421-1.225a.465.465 0 00.252-.435l-.151-2.72 1.499-2.269a.46.46 0 000-.504l-1.49-2.27zm-.853 4.667a.43.43 0 00-.073.28l.142 2.572-2.288 1.155a.452.452 0 00-.201.202l-1.156 2.287-2.572-.142a.5.5 0 00-.28.074l-2.145 1.416-2.146-1.416a.453.453 0 00-.252-.078h-.023l-2.572.142-1.155-2.288a.451.451 0 00-.202-.202L2.393 16l.142-2.572a.5.5 0 00-.073-.28L1.045 11l1.417-2.146a.429.429 0 00.073-.28l-.142-2.571 2.288-1.156a.452.452 0 00.202-.201l1.155-2.288L8.61 2.5a.503.503 0 00.28-.073l2.146-1.417 2.145 1.417a.43.43 0 00.28.073l2.572-.142 1.155 2.288a.452.452 0 00.202.201l2.288 1.156-.142 2.572a.503.503 0 00.073.28L21.026 11l-1.417 2.146z"/></g><defs><clipPath id="clip0"><path fill="#fff" d="M0 0h22v22H0z"/></clipPath></defs></svg>