<svg width="24" height="24" fill="none" xmlns="http://www.w3.org/2000/svg"><path d="M17.156 18.563a.469.469 0 100 .937.469.469 0 000-.938z" fill="#7261ED"/><path d="M18.31 17.047l-2.228-.743-.8-1.6a5.134 5.134 0 001.39-2.716l.1-.597h.853c.775 0 1.406-.631 1.406-1.407V7.031A7.04 7.04 0 0012 0a7.027 7.027 0 00-7.031 7.031v2.953c0 .611.392 1.133.937 1.326v.55c0 .775.631 1.406 1.407 1.406h.411a5.086 5.086 0 00.993 1.44l-.8 1.598-2.227.743c-2.591.864-4.471 3.59-4.471 6.484 0 .26.21.469.468.469h20.625c.26 0 .47-.21.47-.469 0-2.893-1.881-5.62-4.472-6.484zm-.216-7.063a.47.47 0 01-.469.47h-.715a30.576 30.576 0 00.233-2.954h.95v2.484zm-11.719.47a.47.47 0 01-.469-.47V7.5h.952l.005.147v.005c.033.942.111 1.898.228 2.801h-.716zm.938 1.874a.47.47 0 01-.47-.469v-.468h.385l.1.598c.019.113.042.227.07.34h-.085zm-.468-5.765h-.92A6.09 6.09 0 0112 .938a6.102 6.102 0 016.076 5.625h-.92c-.034-2.59-2.142-4.688-4.736-4.688h-.84c-2.594 0-4.702 2.099-4.735 4.688zm4.736-3.75h.838c2.101 0 3.801 1.718 3.8 3.816 0 .147-.001.276-.004.392v.005l-.586-.084a7.532 7.532 0 01-4.235-2.117.47.47 0 00-.332-.138 4.24 4.24 0 00-3.26 1.543c.196-1.909 1.81-3.418 3.779-3.418zm-3.212 9.515c-.235-.78-.503-3.077-.562-4.55l.63-.84a3.3 3.3 0 012.44-1.308 8.478 8.478 0 004.62 2.24l.69.099a29.143 29.143 0 01-.276 2.865c-.043.291-.077.478-.163 1-.249 1.49-1.36 2.836-2.826 3.203a3.83 3.83 0 01-1.843 0c-.916-.23-1.756-.863-2.298-1.771h.956c.193.545.714.937 1.325.937H12a1.406 1.406 0 100-2.812h-.938c-.624 0-1.138.403-1.326.937H8.37zm2.654 3.657a4.738 4.738 0 001.744.04l-.829.875-.915-.915zm.27 1.597l-1.486 1.572a17.858 17.858 0 01-1.05-2.433l.559-1.117 1.978 1.978zm3.312-2.137l.637 1.276a17.85 17.85 0 01-1.05 2.434l-1.59-1.591 2.003-2.119zm-4.011-2.648c0-.259.21-.469.469-.469H12a.47.47 0 010 .938h-.938a.47.47 0 01-.468-.47zM2.175 23.062c.186-2.322 1.731-4.432 3.811-5.126l1.973-.657c.362 1 .81 1.97 1.334 2.894l.003.004c.384.675.815 1.334 1.283 1.96l.577.925H2.175zM12 22.645l-.636-1.021a17.867 17.867 0 01-1.079-1.611l1.672-1.768 1.761 1.761c-.324.546-.68 1.078-1.06 1.585-.022.03.01-.018-.658 1.054zm.844.418l.577-.926c.47-.628.905-1.293 1.292-1.975l.007-.013v-.001c.519-.914.962-1.877 1.32-2.87l1.974.658c2.08.694 3.625 2.804 3.811 5.127h-8.98z" fill="#7261ED"/><path d="M20.416 21.166a4.686 4.686 0 00-1.327-1.611.469.469 0 10-.571.743c.443.34.81.786 1.06 1.287a.469.469 0 00.838-.42z" fill="#7261ED"/></svg>